<?xml version="1.0" standalone="no"?>
<!DOCTYPE svg PUBLIC "-//W3C//DTD SVG 20010904//EN"
 "http://www.w3.org/TR/2001/REC-SVG-20010904/DTD/svg10.dtd">
<svg version="1.0" xmlns="http://www.w3.org/2000/svg"
 width="64.000000pt" height="60.000000pt" viewBox="0 0 64.000000 60.000000"
 preserveAspectRatio="xMidYMid meet">

<g transform="translate(0.000000,60.000000) scale(0.100000,-0.100000)"
fill="#000000" stroke="none">
<path d="M105 586 c-37 -17 -80 -62 -94 -99 -14 -37 -14 -337 0 -374 5 -15 22
-41 37 -57 49 -52 72 -56 312 -56 l220 0 0 35 0 35 -226 0 -226 0 -29 29 -29
29 0 172 0 172 29 29 29 29 192 0 192 0 29 -29 c28 -29 29 -32 29 -135 0 -94
-2 -106 -17 -106 -12 0 -31 25 -56 69 -54 100 -86 104 -136 17 l-28 -46 -27
49 c-49 91 -81 80 -149 -48 l-48 -91 38 0 c37 0 40 2 67 58 25 51 30 55 40 38
43 -71 52 -81 81 -81 28 0 39 11 81 81 10 17 14 13 37 -33 45 -88 103 -108
158 -54 28 29 29 32 29 136 0 67 -5 117 -14 138 -16 39 -61 82 -99 96 -43 16
-384 14 -422 -3z"/>
</g>
</svg>
